<svg xmlns="http://www.w3.org/2000/svg" viewBox="0 0 237.44 261.75"><defs><style>.cls-1{fill:#c7a785;}.cls-2{fill:#eec9a1;}.cls-3{fill:#715f5f;}</style></defs><g id="Layer_5" data-name="Layer 5"><path class="cls-1" d="M7245.76,7261.07s-4.32-3.27-5.95-16.4-38.72,9-38.72,9v12.69l44.67-4.68" transform="translate(-7080.75 -7007.36)"/><path class="cls-1" d="M7158.42,7261.07s4.32-3.27,5.95-16.4,38.72,9,38.72,9v12.69l-44.67-4.68" transform="translate(-7080.75 -7007.36)"/><path class="cls-1" d="M7245.76,7261.67c0,4.11-19.55,7.45-43.67,7.45s-43.67-3.34-43.67-7.45" transform="translate(-7080.75 -7007.36)"/><path class="cls-1" d="M7201.09,7282.83" transform="translate(-7080.75 -7007.36)"/><path class="cls-1" d="M7271.49,7288.7" transform="translate(-7080.75 -7007.36)"/></g><g id="Layer_2" data-name="Layer 2"><ellipse class="cls-2" cx="119.25" cy="136.35" rx="102.74" ry="109.98"/><ellipse class="cls-2" cx="11.09" cy="135.6" rx="11.09" ry="21.13"/><ellipse class="cls-2" cx="226.35" cy="136.35" rx="11.09" ry="21.13"/><path class="cls-3" d="M7111.27,7173.38s-10.91-3.17-14-7.22c-2.41-9.5-10.22-88.62,6.49-108.79s38.77-57.56,81.3-48.66c21.26,6.33,36.49-17.9,94.35,25,16.12,13.75,5.24,15.53,31.45,24.33a116.87,116.87,0,0,1-21.66,9.79s31.62,4.78,13.55,99.46c-5.8,2.64-8,4.49-16.09,6.07,4.49-15,22.29-40.22,5.28-66.59-20.7-19.52-33.36-28.36-27.17-38.51-6.72-2.51-13.05-10.55-13.05-10.55s-14.64,3-32.84,19.25c13.72-18.85,14.51-20.44,20.31-23.21-13.58-3.56-34.28,2.91-56.83,32.84-31.52,18.33-43.12,3.76-43.12,3.76S7098,7106.26,7111.27,7173.38Z" transform="translate(-7080.75 -7007.36)"/></g></svg>