<svg xmlns="http://www.w3.org/2000/svg" viewBox="0 0 237.44 385.11"><defs><style>.cls-1{fill:#c7a785;}.cls-2{fill:#eec9a1;}.cls-3{fill:#715f5f;}.cls-4{fill:#763535;}.cls-5{fill:#191919;}.cls-6{fill:#fff;}.cls-7{fill:#5d9ed8;}.cls-8{fill:#141414;}</style></defs><g id="Layer_5" data-name="Layer 5"><path class="cls-1" d="M7245.76,7261.07s-4.32-3.27-5.95-16.4-38.72,9-38.72,9v29.17l44.67-21.16" transform="translate(-7080.75 -7007.36)"/><path class="cls-1" d="M7158.42,7261.07s4.32-3.27,5.95-16.4,38.72,9,38.72,9v29.17l-44.67-21.16" transform="translate(-7080.75 -7007.36)"/></g><g id="Layer_2" data-name="Layer 2"><ellipse class="cls-2" cx="119.25" cy="136.35" rx="102.74" ry="109.98"/><ellipse class="cls-2" cx="11.09" cy="135.6" rx="11.09" ry="21.13"/><ellipse class="cls-2" cx="226.35" cy="136.35" rx="11.09" ry="21.13"/><path class="cls-3" d="M7111.27,7173.38s-10.91-3.17-14-7.22c-2.41-9.5-10.22-88.62,6.49-108.79s38.77-57.56,81.3-48.66c21.26,6.33,36.49-17.9,94.35,25,16.12,13.75,5.24,15.53,31.45,24.33a116.87,116.87,0,0,1-21.66,9.79s31.62,4.78,13.55,99.46c-5.8,2.64-8,4.49-16.09,6.07,4.49-15,22.29-40.22,5.28-66.59-20.7-19.52-33.36-28.36-27.17-38.51-6.72-2.51-13.05-10.55-13.05-10.55s-14.64,3-32.84,19.25c13.72-18.85,14.51-20.44,20.31-23.21-13.58-3.56-34.28,2.91-56.83,32.84-31.52,18.33-43.12,3.76-43.12,3.76S7098,7106.26,7111.27,7173.38Z" transform="translate(-7080.75 -7007.36)"/><g id="Layer_4" data-name="Layer 4"><path class="cls-1" d="M7208.59,7137s.39,18.86,9,37.06c-7.38,5.8-14.24,6.33-23.6,5.41,12.79,1.71,16.88,1.31,25.32-4.22C7215.45,7166.52,7211,7160.32,7208.59,7137Z" transform="translate(-7080.75 -7007.36)"/><path class="cls-1" d="M7267.8,7153.47" transform="translate(-7080.75 -7007.36)"/><ellipse class="cls-4" cx="121.34" cy="345.75" rx="100.65" ry="39.36"/><path class="cls-4" d="M7102.44,7354.49s-18.39-86.83,47.54-81.55c4.75-2.77,6.6-5.93,8.44-11.87,11.21,4.88,24.85,10.42,44.67,9.89v121.52Z" transform="translate(-7080.75 -7007.36)"/><path class="cls-4" d="M7099.08,7357" transform="translate(-7080.75 -7007.36)"/><path class="cls-4" d="M7301.74,7354.49s18.39-86.83-47.55-81.55c-4.74-2.77-6.59-5.93-8.43-11.87-11.21,4.88-24.85,10.42-44.67,9.89v121.52Z" transform="translate(-7080.75 -7007.36)"/></g><path id="lip" class="cls-5" d="M7178,7211.1s30.71,10.59,51.52,2.63C7215.85,7214.69,7197.38,7214.89,7178,7211.1Z" transform="translate(-7080.75 -7007.36)"/></g><g id="eye"><path class="cls-3" d="M7267.31,7135.9a2.42,2.42,0,0,1,2.44-1.08c.79,0-28.68-12.63-45.56.5.66.58.92.58.92.58h42.2" transform="translate(-7080.75 -7007.36)"/><path class="cls-6" d="M7225.37,7136.22c20.58,13.72,25.32,8.42,41.94-.32-24.79-11.49-41.94,0-41.94,0" transform="translate(-7080.75 -7007.36)"/><circle class="cls-7" cx="165.59" cy="129.63" r="4.96"/><circle class="cls-8" cx="165.59" cy="129.63" r="2.57"/></g><g id="Layer_9" data-name="Layer 9"><path class="cls-3" d="M7145.14,7135.89a2.42,2.42,0,0,0-2.44-1.08c-.8,0,28.68-12.63,45.56.51-.66.57-.92.57-.92.57h-42.2" transform="translate(-7080.75 -7007.36)"/><path class="cls-6" d="M7187.07,7136.21c-20.57,13.72-25.32,8.43-41.93-.32,24.79-11.49,41.93,0,41.93,0" transform="translate(-7080.75 -7007.36)"/><circle class="cls-7" cx="85.36" cy="129.62" r="4.96"/><circle class="cls-8" cx="85.36" cy="129.62" r="2.57"/></g><g id="Layer_6" data-name="Layer 6"><path class="cls-3" d="M7194,7124.46s-23.3-14.25-43.37-4a38.51,38.51,0,0,1-11.62,4l3.17,6.33s36.13-11.34,47.73-1.32A52.48,52.48,0,0,0,7194,7124.46Z" transform="translate(-7080.75 -7007.36)"/><path class="cls-3" d="M7217.48,7124.46s23.3-14.25,43.37-4a38.51,38.51,0,0,0,11.62,4l-3.17,6.33s-36.13-11.34-47.73-1.32A52.48,52.48,0,0,1,7217.48,7124.46Z" transform="translate(-7080.75 -7007.36)"/></g></svg>