<svg xmlns="http://www.w3.org/2000/svg" xmlns:xlink="http://www.w3.org/1999/xlink" viewBox="0 0 1170.44911 2126.7229"><defs><style>.a,.g,.h,.q,.r{fill:none;}.b{clip-path:url(#a);}.c{fill:#e7ac85;}.d,.f{fill:#da8a6b;}.e{fill:#705043;}.f{opacity:0.73;}.g{stroke:#1b1b1c;stroke-width:2.5px;}.g,.h,.q,.r{stroke-miterlimit:10;}.h{stroke:#da8a6b;stroke-width:3px;}.h,.q,.r{stroke-linecap:round;}.i{fill:#66473c;}.j{fill:#e7e7e7;}.k{fill:#3f3f42;}.l,.p{fill:#fff;}.m{fill:#313133;}.n{fill:#1b1b1c;}.o{fill:#5c7f99;}.p{opacity:0.25;}.q{stroke:#d08b79;stroke-width:1.5px;}.r{stroke:#202021;stroke-width:5px;}</style><clipPath id="a" transform="translate(-430.00354 -324.2771)"><circle class="a" cx="1012" cy="1140.25" r="919.25"/></clipPath></defs><g class="b"><path class="c" d="M1222.95139,1144.06878s-38.57841-24.72968-74.21552-53.15982a121.15,121.15,0,0,1-44.05187-74.36206c-7.87342-46.47928-4.043-100.3306-4.043-100.3306L996.08529,812.647l-.49319,3.91263V812.1538L891.03642,915.72311s3.83045,53.85132-4.043,100.3306a121.1499,121.1499,0,0,1-44.05182,74.36206c-35.63722,28.43015-74.21558,53.15982-74.21558,53.15982l216.016,210.09775Z" transform="translate(-430.00354 -324.2771)"/><path class="d" d="M1104.684,1016.5469c-7.87342-46.47928-4.043-100.3306-4.043-100.3306l-37.27561-36.924L923.039,884.02241l-32.00256,31.7007S922.6004,1056.77465,1104.684,1016.5469Z" transform="translate(-430.00354 -324.2771)"/><path class="e" d="M787.48033,726.2636s-55.63324-179.6285-53.85546-217.35387,30.78485-45.58549,47.23806-42.517c0,0,4.26121-80.577,86.43159-117.08,0,0-11.04922,18.97081-11.78445,40.36589,0,0,77.07141-87.0281,223.06286-60.302,0,0,137.64192,23.166,112.20189,123.32838,0,0,22.37846,16.9426,8.52485,98.61-14.91208,89.35673-28.183,163.8719-28.183,163.8719Z" transform="translate(-430.00354 -324.2771)"/><path class="c" d="M1170.9943,547.4l-70.89189-47.50919-188.0145-32.3099L778.076,571.24016s10.42859,222.92129,40.85745,282.04431c26.30308,51.10667,81.37612,118.69044,149.293,138.08455a97.87612,97.87612,0,0,0,64.80771-3.93219C1098.108,959.97354,1144.60587,886.227,1164.537,832.31506,1187.59438,769.94678,1170.9943,547.4,1170.9943,547.4Z" transform="translate(-430.00354 -324.2771)"/><path class="f" d="M878.26663,563.66034s143.67631,47.21674,260.56275-3.59295S956.87,477.6372,956.87,477.6372l-78.60334,86.02314" transform="translate(-430.00354 -324.2771)"/><line class="g" x1="717.95166" y1="369.43954" x2="743.04576" y2="372.49206"/><line class="g" x1="383.73634" y1="390.73466" x2="351.62893" y2="397.76621"/><path class="c" d="M785.28367,698.43793s-15.34541-17.68505-35.18731-10.08186a31.04894,31.04894,0,0,0-19.47106,25.90485c-2.85507,27.4199-1.00877,90.54139,74.76962,97.82587C815.35152,716.439,785.28367,698.43793,785.28367,698.43793Z" transform="translate(-430.00354 -324.2771)"/><path class="h" d="M737.24662,727.78648s25.56754-31.03529,49.635-3.01159" transform="translate(-430.00354 -324.2771)"/><path class="h" d="M757.06194,744.37625s-4.32956-21.08777,4.21-31.15149" transform="translate(-430.00354 -324.2771)"/><path class="c" d="M1176.82713,674.68113s13.09463-19.41064,33.71023-14.26219a31.04888,31.04888,0,0,1,22.46023,23.36067c6.14931,26.87356,11.94823,89.75523-62.39354,106.14821C1120.22747,781.30924,1176.82713,674.68113,1176.82713,674.68113Z" transform="translate(-430.00354 -324.2771)"/><path class="h" d="M1228.06015,698.0065s-29.13229-27.71639-49.635,3.01159" transform="translate(-430.00354 -324.2771)"/><path class="h" d="M1210.396,716.87033s1.7482-21.45654-7.94549-30.414" transform="translate(-430.00354 -324.2771)"/><path class="e" d="M799.32854,720.46127s23.58256-105.6415,18.51317-172.4354c0,0,164.4114,62.20931,302.875-18.37686,0,0,20.0066,120.28045,45.30331,168.56334,0,0,6.10734-16.63758,12.64491-26.18445,3.6512-23.60538-3.48517-241.76054-3.48517-241.76054l-197.896,5.90715-222.0476,93.79112,21.98929,161.33606S793.15744,702.53529,799.32854,720.46127Z" transform="translate(-430.00354 -324.2771)"/><path class="i" d="M1190.97962,452.87717c-.13086-.1153-.2048-.17219-.2048-.17219,9.33785-36.76514-3.29635-63.1564-23.03049-81.83623C1189.6837,503.0811,972.174,570.63966,972.174,570.63966,1143.61065,562.61433,1187.25265,462.29818,1190.97962,452.87717Z" transform="translate(-430.00354 -324.2771)"/><path class="j" d="M1208.08964,1115.91747c-35.254-15.99269-58.62314-25.60609-58.62314-25.60609l-152.888,76.9372-153.38121-77.43039s-28.40287,11.68412-69.82046,30.71892c-39.20658,18.01865-100.728,411.4368,118.1528,757.39421C1075.89807,2169.33942,1279.48235,1148.30425,1208.08964,1115.91747Z" transform="translate(-430.00354 -324.2771)"/><polygon class="k" points="503.327 907.606 530.079 948.514 599.125 948.514 626.744 907.086 586.446 815.846 475.791 824.175 503.327 907.606"/><path class="l" d="M1139.60276,1082.42038l-17.32719,10.35131a386.66552,386.66552,0,0,1-125.697,47.84477h-.00007l-28.52509-7.44133a409.45824,409.45824,0,0,1-116.47188-50.75472l-.00006,0-60.89182,30.23975s2.8985,94.53782,116.72336,165.80276L996.57847,1144.562l88.44258,133.90092c113.82486-71.26494,116.7233-165.80276,116.7233-165.80276Z" transform="translate(-430.00354 -324.2771)"/><polyline class="k" points="533.533 896.387 446.237 1551.188 565.589 1637.989 674.09 1550.202 595.18 872.563 540.929 872.563"/><path class="m" d="M998.55022,2423.88954H891.03642l.0434-.49319L533,2450c-35-279-21.99008-366.2928-49-606-63.45719-180.39974-61.99226-308.20433-41.04938-425.133a349.94193,349.94193,0,0,1,28.36779-89.15193c12.182-25.51556,27.45175-49.10823,47.83736-65.19073,94.81839-74.80357,275.99886-157.47837,321.08237-176.67886,0,0-28.11167,360.51984,159.29946,619.9363Z" transform="translate(-430.00354 -324.2771)"/><path class="m" d="M993.8933,2423.88954h107.5138l-.04341-.49319L1462,2451c20-124,29.35857-295.10461,41-479,.64735-10.226,29.43163,28.72535,57-23,10.78758-20.24028,25.71084-68.61518,29.52147-91.232,26.00769-154.36045.076-310.067-20.46588-413.92522a374.74728,374.74728,0,0,0-45.33-119.1203c-15.30486-25.70193-30.793-44.70741-50.52082-60.26366-94.84108-74.78633-275.929-157.4185-320.99936-176.61339,0,0,31.89293,281.4082-143.98568,592.6684a106.93146,106.93146,0,0,0-13.85385,52.52526Z" transform="translate(-430.00354 -324.2771)"/><path class="n" d="M1238.51314,1127.7936s42.4141,103.56931,37.48222,230.81161c0,0-64.11433,22.68661-96.66469,64.11433,0,0-.98637,61.15521,21.70024,123.2968,0,0-91.01938,147.95616-222.20717,188.39751-.11315.03487,194.31575-341.28554,169.92933-648.048C1148.75307,1086.36588,1193.13992,1094.25688,1238.51314,1127.7936Z" transform="translate(-430.00354 -324.2771)"/><path class="n" d="M753.93038,1127.7936s-42.4141,103.56931-37.48223,230.81161c0,0,64.11434,22.68661,96.66469,64.11433,0,0,.98638,61.15521-21.70024,123.2968,0,0,84.29866,119.16905,208.125,164.72452-.17965-.69072-177.54739-313.667-155.84715-624.375C843.69045,1086.36588,799.3036,1094.25688,753.93038,1127.7936Z" transform="translate(-430.00354 -324.2771)"/><path class="e" d="M1014.82736,618.99532a14.14706,14.14706,0,0,0-9.11827,13.37659c.10345,3.7864,1.81875,7.85882,7.15544,11.048,13.72291,8.20063,69.8246-36.88936,125.36265-19.729,0,0-5.11251-10.268-20.2823-17.78764a61.30885,61.30885,0,0,0-33.435-5.7889C1071.12319,601.47035,1048.30731,605.863,1014.82736,618.99532Z" transform="translate(-430.00354 -324.2771)"/><path class="e" d="M937.81571,643.53648a14.147,14.147,0,0,1,11.13606,11.75006c.50211,3.75438-.54132,8.04834-5.3007,12.04825-12.23838,10.28546-74.81662-25.27393-126.90448.52938,0,0,3.40843-10.95225,17.18382-20.79637a61.30883,61.30883,0,0,1,32.08272-11.0503C879.44466,635.21984,902.66912,635.91518,937.81571,643.53648Z" transform="translate(-430.00354 -324.2771)"/><path class="h" d="M981.92082,688.5404s4.05643,66.85536-22.87318,117.73667a68.5381,68.5381,0,0,0,42.95718,12.19763" transform="translate(-430.00354 -324.2771)"/><path class="g" d="M951.04917,704.30349s28.86824-23.3301,59.16717-4.07393" transform="translate(-430.00354 -324.2771)"/><path class="g" d="M843.001,684.914h80.22114a28.74472,28.74472,0,0,1,28.74472,28.74472v14.664a22.74468,22.74468,0,0,1-22.74468,22.74468H838.14985a23.59574,23.59574,0,0,1-23.59574-23.59574V713.36087A28.44685,28.44685,0,0,1,843.001,684.914Z" transform="translate(1378.37995 1056.89317) rotate(176.52785)"/><path class="g" d="M1034.81893,673.92087h91.07229a22.74468,22.74468,0,0,1,22.74468,22.74468v14.664a28.74472,28.74472,0,0,1-28.74472,28.74472H1039.67a28.44685,28.44685,0,0,1-28.44685-28.44685V697.51662A23.59574,23.59574,0,0,1,1034.81893,673.92087Z" transform="translate(-470.83933 -257.57514) rotate(-3.47215)"/><path class="h" d="M977.47874,888.6s34.02126-41.1,63.87117-17.22857" transform="translate(-430.00354 -324.2771)"/><path class="l" d="M1033.677,722.80983s3.31977-30.23314,36.31518-36.81707a38.55715,38.55715,0,0,1,13.76356-.329,37.73244,37.73244,0,0,1,23.46137,13.76047,54.10374,54.10374,0,0,1,10.35068,20.77106S1072.732,735.75988,1033.677,722.80983Z" transform="translate(-430.00354 -324.2771)"/><path class="o" d="M1094.63738,722.245a28.90075,28.90075,0,0,0,19.54285-11.6013,56.36524,56.36524,0,0,0-6.96314-11.21942,37.44333,37.44333,0,0,0-33.60636-13.992q-1.80921.21287-3.60562.5582l-.01307.00232a53.21561,53.21561,0,0,0-7.68061,2.13846,28.98129,28.98129,0,0,0,32.32595,34.11376Z" transform="translate(-430.00354 -324.2771)"/><circle class="p" cx="642.13621" cy="370.03796" r="3.85807"/><path class="l" d="M931.75952,728.99365s-6.95074-29.61-40.50013-32.15633a38.557,38.557,0,0,0-13.70237,1.33751,37.7324,37.7324,0,0,0-21.62556,16.4961,54.10366,54.10366,0,0,0-7.76343,21.87013S894.55669,746.57062,931.75952,728.99365Z" transform="translate(-430.00354 -324.2771)"/><path class="o" d="M909.92214,732.45068a28.87851,28.87851,0,0,0,18.97159-10.86087c-4.43872-8.94878-14.954-23.03109-37.63434-24.7525a38.85712,38.85712,0,0,0-11.62847.81507c-.69152.21867-1.37191.44541-2.03473.68454a28.98129,28.98129,0,0,0,32.326,34.11376Z" transform="translate(-430.00354 -324.2771)"/><circle class="p" cx="457.42098" cy="380.24367" r="3.85807"/><path class="q" d="M1033.677,722.80983c33.87882,11.23369,72.10758,1.01034,81.64588-1.89693l2.45615-.7434" transform="translate(-430.00354 -324.2771)"/><path class="q" d="M931.97154,728.98078c-32.27209,15.24738-71.45645,9.721-81.27629,7.98833l-2.528-.441" transform="translate(-430.00354 -324.2771)"/><path class="c" d="M1420,1265s-31-182-80-274c-31.34292-58.84792-48-150-201-189-4.18966-1.06795-27.02673-3.993-21.94272,15.51492a29.89573,29.89573,0,0,0,12.268,16.96525c34.95806,23.88931,65.50725,13.8518,85.32736,53.8493,0,0-23.86453-10.34932-46.5658-8.37144a45.47745,45.47745,0,0,0-28.43174,13.64324c-22.789,23.20451-38.29482,66.57029-12.38536,73.71555,0,0-18.484,35.76189,16.62162,34.19755,0,0-24.33845,39.71779.35581,43.66264a22.15736,22.15736,0,0,0,21.63415-9.658l19.43469-28.57834s-4.39471,37.2499,38.40258,71.07189a100.932,100.932,0,0,1,32.64,45.48941C1280.45959,1191.672,1262,1279,1262,1279S1465.00738,1348.16625,1420,1265Z" transform="translate(-430.00354 -324.2771)"/><line class="h" x1="784.64914" y1="564.05236" x2="812.49646" y2="574.2229"/><path class="h" d="M1128.5,964.5s23.16846-50.99394,48.20795-51.39831,60.88534,16.416,60.88534,16.416" transform="translate(-430.00354 -324.2771)"/><path class="h" d="M1144.5,999.5s25.034-43.39392,38.59548-47.71338,52.8187,11.00509,52.8187,11.00509" transform="translate(-430.00354 -324.2771)"/><path class="h" d="M1185.31606,1006.94066a27.209,27.209,0,0,1,18.63655-5.7313" transform="translate(-430.00354 -324.2771)"/><path class="m" d="M436.3037,1491.26962c-2.27663,125.1.66867,372.68032,163.15365,542.46858a90.171,90.171,0,0,0,65.30433,27.92339c83.6598-.18145,294.96173-29.42548,616.73832-267.16159v-138s-295,40-503,78l-96-367s-137.11146,32.64559-210.20709,67.73918A63.42946,63.42946,0,0,0,436.3037,1491.26962Z" transform="translate(-430.00354 -324.2771)"/><path class="l" d="M1249,1138l.19809-30.24313S1340,1126,1391,1097l19,58Z" transform="translate(-430.00354 -324.2771)"/><path class="r" d="M706.5,1480.5s5,99,72,254" transform="translate(-430.00354 -324.2771)"/><path class="r" d="M649.33248,1862.51843s-6.14474-88.47523,57.37143-140.24745" transform="translate(-430.00354 -324.2771)"/><path class="r" d="M661.971,1860.40337s15.50982-84.15929,101.74384-116.63567" transform="translate(-430.00354 -324.2771)"/><path class="n" d="M589.69624,2015.43125c20.94361,25.53306,52.18421,39.70884,85.16556,41.38278,104.45383,5.30147,314.77651-30.232,638.83391-246.98988l-15.72195-17.009S710.71019,2159.01387,589.69624,2015.43125Z" transform="translate(-430.00354 -324.2771)"/><path class="r" d="M1276.75985,1656.8733c-30.12529,4.114-302.26182,41.53151-498.41025,77.28916" transform="translate(-430.00354 -324.2771)"/><path class="m" d="M1589,1858c11.15738-107.79129-34.811-366.17646-187.84648-738.254-64.0108,21.46085-110.84356,19.3005-153.27495,6.13668-.86641,79.01485-13.44987,194.8364-15.93356,346.21093a1016.07727,1016.07727,0,0,0,21.89687,228.663c20.84486,97.6758,48.30456,154.86162,75.8127,201.08415a300.1504,300.1504,0,0,0,63.9407,76.05251C1455.10863,2029.83652,1520,2041,1564.25122,1940.1592,1570.816,1924.08378,1587.207,1875.32207,1589,1858Z" transform="translate(-430.00354 -324.2771)"/><path class="n" d="M1231.69084,1555.29124c17.10682,164.70463,41.04587,256.04825,68.22631,322.11687,22.48534,54.65606,63.70851,98.67655,116.14538,121.83759,36.67984,16.20125,70.89945,19.53586,86.98915,12.3355C1503.51055,2011.839,1297,2002,1231.69084,1555.29124Z" transform="translate(-430.00354 -324.2771)"/><path class="r" d="M1503.5,1405.5s84.14889,268.06192,83.57326,435.7347" transform="translate(-430.00354 -324.2771)"/><path class="h" d="M1137.1705,801.63866c-6.75476-1.07076-24.67531-1.629-20.11322,15.87626a29.89573,29.89573,0,0,0,12.268,16.96525,115.862,115.862,0,0,0,25.13652,12.80861" transform="translate(-430.00354 -324.2771)"/></g></svg>