<svg xmlns="http://www.w3.org/2000/svg" xmlns:xlink="http://www.w3.org/1999/xlink" viewBox="0 0 1506.71972 2762.58981"><defs><style>.a,.g,.h,.o,.q{fill:none;}.b{clip-path:url(#a);}.c{fill:#e7ac85;}.d,.f{fill:#da8a6b;}.e{fill:#705043;}.f{opacity:0.73;}.g{stroke:#1b1b1c;stroke-width:2.5px;}.g,.h,.o,.q{stroke-miterlimit:10;}.h{stroke:#da8a6b;stroke-width:3px;}.h,.o,.q{stroke-linecap:round;}.i{fill:#66473c;}.j{fill:#eaeaea;}.k{fill:#3f3f42;}.l,.r{fill:#fff;}.m{fill:#313133;}.n{fill:#1b1b1c;}.o{stroke:#202021;stroke-width:5px;}.p{fill:#5c7f99;}.q{stroke:#d38e79;stroke-width:1.5px;}.r{opacity:0.25;}</style><clipPath id="a" transform="translate(-237.87568 -5.10261)"><path class="a" d="M1858.15608,210.65992C1640.0056-2.86806,1341.37494-37,1012-37,704.63276-37,424.03861-19.87079,210.63519,168.97-39.838,390.61384,0,714.24076,0,1075c0,346.93065-51.71213,660.00233,182.24353,880.595C398.84469,2159.82433,690.80417,2285,1012,2285c293.69589,0,562.9474-104.65883,772.49375-278.71573C1784.49375,2006.28427,2024,1779,2024,1032S1858.15608,210.65992,1858.15608,210.65992Z"/></clipPath></defs><g class="b"><path class="c" d="M1289.61594,1080.27559s-50.76991-32.54472-97.669-69.95931a159.43558,159.43558,0,0,1-57.97308-97.86185c-10.36156-61.16759-5.3207-132.03692-5.3207-132.03692L991.05594,644.11838l-.649,5.14909v-5.79813L852.80969,779.76846s5.04094,70.86934-5.3207,132.03693a159.43552,159.43552,0,0,1-57.973,97.86184c-46.89926,37.4146-97.66908,69.95931-97.66908,69.95931l284.281,276.49252Z" transform="translate(-237.87568 -5.10261)"/><path class="d" d="M1133.97386,912.45443c-10.36156-61.16759-5.3207-132.03692-5.3207-132.03692l-49.05539-48.59262-184.67212,6.22486-42.116,41.71871S894.34847,965.39489,1133.97386,912.45443Z" transform="translate(-237.87568 -5.10261)"/><path class="e" d="M717.08214,514.97292s-58.76312-240.3946-53.421-289.80905,44.07235-57.4276,65.44075-52.0855c0,0,12.01973-105.50652,122.86836-146.90781,0,0-16.02631,24.03946-18.69736,52.0855,0,0,108.17757-108.17758,297.8222-61.43418,0,0,178.96043,41.40129,137.55914,170.94727,0,0,28.046,24.03946,3.33881,130.21375-26.71051,116.19072-50.08221,213.01633-50.08221,213.01633Z" transform="translate(-237.87568 -5.10261)"/><path class="c" d="M1235.123,310.58416l-89.33718-68.05846L901.38467,185.0981,717.08432,310.58416s-4.06837,293.6612,31.19081,373.75062c30.47847,69.23028,97.436,162.398,185.106,193.28727a128.80676,128.80676,0,0,0,85.445,0c87.67007-30.8893,154.62758-124.057,185.106-193.28727C1239.19141,604.24536,1235.123,310.58416,1235.123,310.58416Z" transform="translate(-237.87568 -5.10261)"/><path class="f" d="M849.29918,308.61273s184.97029,73.47539,342.56231,16.04779S959.409,201.87737,959.409,201.87737L849.29918,308.61273" transform="translate(-237.87568 -5.10261)"/><line class="g" x1="955.32133" y1="495.84729" x2="988.04171" y2="501.85716"/><line class="g" x1="514.59789" y1="497.18282" x2="471.86107" y2="503.86045"/><path class="c" d="M716.41438,478.246s-18.74822-24.45421-45.41859-16.04807c-14.59793,4.60106-25.1377,17.37716-27.64192,32.47678-5.93586,35.79129-8.5415,118.855,90.42061,134.46365C754.47686,504.28872,716.41438,478.246,716.41438,478.246Z" transform="translate(-237.87568 -5.10261)"/><path class="h" d="M650.97363,512.96963s36.05919-38.73024,65.44075,0" transform="translate(-237.87568 -5.10261)"/><path class="h" d="M675.68085,536.34133s-4.00658-28.046,8.01316-40.58514" transform="translate(-237.87568 -5.10261)"/><path class="c" d="M1232.64043,478.246s18.74822-24.45421,45.41858-16.04807c14.59794,4.60106,25.13771,17.37716,27.64193,32.47678,5.93585,35.79129,8.5415,118.855-90.42061,134.46365C1149.79243,613.80181,1232.64043,478.246,1232.64043,478.246Z" transform="translate(-237.87568 -5.10261)"/><path class="h" d="M1298.08118,512.96963s-36.05919-38.73024-65.44075,0" transform="translate(-237.87568 -5.10261)"/><path class="h" d="M1273.374,536.34133s4.00657-28.046-8.01316-40.58514" transform="translate(-237.87568 -5.10261)"/><path class="e" d="M733.10845,508.29529s39.398-136.89137,38.06248-225.03606c0,0,211.013,94.82232,399.32215,0,0,0,16.69407,159.59531,46.07563,225.03606,0,0,9.34868-21.36841,18.69736-33.38814,6.67763-30.71709,14.69078-317.85509,14.69078-317.85509l-260.42749-8.01315L690.37163,254.54543l16.02631,213.68409S726.43082,484.25583,733.10845,508.29529Z" transform="translate(-237.87568 -5.10261)"/><path class="i" d="M1268.90951,188.01166c-.1627-.16189-.2553-.24251-.2553-.24251,15.19649-47.55054.70363-83.22515-23.73036-109.33588,18.282,175.42312-272.824,246.83217-272.824,246.83217C1197.93917,328.38726,1263.26287,200.09008,1268.90951,188.01166Z" transform="translate(-237.87568 -5.10261)"/><path class="j" d="M1270.05759,1043.228c-46.39486-21.04669-77.14913-33.6981-77.14913-33.6981L991.705,1110.78063,789.85247,1008.88081s-37.3787,15.37651-91.885,40.42666c-51.59658,23.71288-132.55989,541.45844,155.49128,996.74479C1096.091,2429.55071,1364.01172,1085.84954,1270.05759,1043.228Z" transform="translate(-237.87568 -5.10261)"/><polygon class="k" points="670.593 1190.738 705.8 1244.573 796.666 1244.573 833.013 1190.054 779.98 1069.981 634.356 1080.942 670.593 1190.738"/><path class="l" d="M1179.92759,999.14515l-22.8029,13.62252a508.85922,508.85922,0,0,1-165.41961,62.9646H991.705l-37.53955-9.79292A538.85489,538.85489,0,0,1,800.88628,999.1452l-.00007-.00005-80.13476,39.79607s3.81447,124.41351,153.61009,218.1995L991.705,1080.92463l116.39206,176.21609c149.79562-93.786,153.61-218.1995,153.61-218.1995Z" transform="translate(-237.87568 -5.10261)"/><polyline class="k" points="710.345 1175.974 595.463 2037.704 752.531 2151.936 895.321 2036.406 791.474 1144.621 720.079 1144.621"/><path class="m" d="M242.39721,2282.22808c-11.14524-360.27394-2.28932-727.8728,33.30453-901.2324a244.12315,244.12315,0,0,1,88.23054-142.61162c124.92517-98.33394,362.7782-206.86658,422.02593-232.09943,0,0-36.99548,474.45077,209.641,815.84763l-.63821,462.86662" transform="translate(-237.87568 -5.10261)"/><path class="m" d="M1740.05782,2282.74659c11.16993-360.44458,2.32221-728.31809-33.28993-901.75792a243.51373,243.51373,0,0,0-87.81392-142.27756c-124.81262-98.42019-363.12767-207.16565-422.4411-232.42648,0,0,41.97169,370.33843-189.48783,779.96261a140.72378,140.72378,0,0,0-18.23192,69.12417l-.295,431.29206" transform="translate(-237.87568 -5.10261)"/><path class="n" d="M1310.09548,1058.85715s55.81774,136.29913,49.3273,303.75234c0,0-84.37565,29.856-127.21252,84.37565,0,0-1.29808,80.48139,28.55791,162.26087,0,0-119.78319,194.713-292.42875,247.9346-.14889.0459,255.72313-449.13808,223.63015-852.84311C1191.96957,1004.3375,1250.38348,1014.7222,1310.09548,1058.85715Z" transform="translate(-237.87568 -5.10261)"/><path class="n" d="M672.3756,1058.85715s-55.81773,136.29913-49.3273,303.75234c0,0,84.37565,29.856,127.21252,84.37565,0,0,1.29809,80.48139-28.55791,162.26087,0,0,110.93859,156.82867,273.89634,216.78051-.23642-.909-233.65565-412.79164-205.09774-821.689C790.50151,1004.3375,732.0876,1014.7222,672.3756,1058.85715Z" transform="translate(-237.87568 -5.10261)"/><path class="o" d="M442.84733,1375.59036s51.27443,101.89983,75.289,202.50156" transform="translate(-237.87568 -5.10261)"/><path class="o" d="M414.28942,1578.09192s34.3993,53.87061,95.65814,71.10555" transform="translate(-237.87568 -5.10261)"/><path class="o" d="M518.1662,1664.86478l.61922,238.39792" transform="translate(-237.87568 -5.10261)"/><path class="o" d="M388.97672,1651.43383s64.90435,29.856,120.72209,25.96174" transform="translate(-237.87568 -5.10261)"/><path class="o" d="M1539.26456,1374.29227s-51.27443,101.89983-75.289,202.50156" transform="translate(-237.87568 -5.10261)"/><path class="o" d="M1567.82247,1576.79383s-34.3993,53.87061-95.65814,71.10555" transform="translate(-237.87568 -5.10261)"/><path class="o" d="M1463.94569,1663.56669l-.61922,238.39792" transform="translate(-237.87568 -5.10261)"/><path class="o" d="M1593.13517,1650.13575s-64.90435,29.856-120.72209,25.96173" transform="translate(-237.87568 -5.10261)"/><path class="o" d="M518.78542,2082.39869s-.49374,155.00368-7.78853,368.65669c-3.3386,97.78238-1.75635,216.0274-6.49043,314.137" transform="translate(-237.87568 -5.10261)"/><path class="o" d="M1464.62456,2082.39869s.49373,155.00368,7.78852,368.65669c3.3386,97.78238,1.75635,216.0274,6.49044,314.137" transform="translate(-237.87568 -5.10261)"/><path class="e" d="M1025.05474,403.65649a18.61778,18.61778,0,0,0-14.59063,15.5243c-.64017,4.94355.75657,10.5887,7.04189,15.82648,16.16227,13.46855,98.32046-33.67139,167.0101,0,0,0-4.54564-14.39452-22.72819-27.27383a80.68375,80.68375,0,0,0-42.28175-14.36616C1101.82579,392.39129,1071.26605,393.43386,1025.05474,403.65649Z" transform="translate(-237.87568 -5.10261)"/><path class="e" d="M920.61584,403.65649a18.61778,18.61778,0,0,1,14.59064,15.5243c.64017,4.94355-.75657,10.5887-7.0419,15.82648-16.16226,13.46855-98.32046-33.67139-167.01009,0,0,0,4.54564-14.39452,22.72819-27.27383a80.68371,80.68371,0,0,1,42.28174-14.36616C843.84479,392.39129,874.40453,393.43386,920.61584,403.65649Z" transform="translate(-237.87568 -5.10261)"/><path class="l" d="M870.0327,717.05782s104.03434,29.7721,206.23954-4.75722c0,0-17.10657,29.99189-47.56131,52.13935-31.46975,22.88561-73.28173,24.644-106.9578,5.1499A135.20469,135.20469,0,0,1,870.0327,717.05782Z" transform="translate(-237.87568 -5.10261)"/><path class="h" d="M975.50634,480.917s0,88.14469-39.43017,152.83617c0,0,22.06834,19.44663,55.45648,19.44663" transform="translate(-237.87568 -5.10261)"/><path class="g" d="M933.6969,499.1629s39.78087-28.34561,78.04686-.63575" transform="translate(-237.87568 -5.10261)"/><path class="g" d="M781.58657,468.21h123.6461a28.74472,28.74472,0,0,1,28.74472,28.74472v35.56973a22.74468,22.74468,0,0,1-22.74468,22.74468H776.73547a23.59574,23.59574,0,0,1-23.59574-23.59574V496.65687A28.44685,28.44685,0,0,1,781.58657,468.21Z" transform="translate(1449.24144 1018.37656) rotate(180)"/><path class="g" d="M798.081,464.3418H932.57827a22.74468,22.74468,0,0,1,22.74468,22.74468v35.56973a28.74472,28.74472,0,0,1-28.74472,28.74472H802.93212a28.44685,28.44685,0,0,1-28.44685-28.44685V487.93754A23.59574,23.59574,0,0,1,798.081,464.3418Z"/><path class="l" d="M1038.74987,534.19324a98.99572,98.99572,0,0,1,14.03939-30.56656c18.246-26.0641,55.1539-31.49682,78.95689-10.38589,7.09717,6.2945,16.37721,22.61131,19.28086,35.22117C1151.027,528.462,1096.1456,524.76137,1038.74987,534.19324Z" transform="translate(-237.87568 -5.10261)"/><path class="p" d="M1129.82617,514.75973a32.8195,32.8195,0,0,0-8.172-28.51734,52.94509,52.94509,0,0,0-47.60044-.6561,32.85471,32.85471,0,0,0-1.4635,44.37885c19.80005-1.76474,37.86377-2.23192,51.65386-2.21789A32.73092,32.73092,0,0,0,1129.82617,514.75973Z" transform="translate(-237.87568 -5.10261)"/><path class="q" d="M1151.027,528.462s-54.88141-3.70059-112.27714,5.73128" transform="translate(-237.87568 -5.10261)"/><circle class="r" cx="842.4159" cy="489.24462" r="5.07729"/><circle class="r" cx="85.31384" cy="546.20256" r="5.19235"/><path class="l" d="M908.25552,534.19324a98.9956,98.9956,0,0,0-14.0394-30.56656c-18.246-26.0641-55.1539-31.49682-78.95688-10.38589-7.09718,6.2945-16.37722,22.61131-19.28086,35.22117C795.97838,528.462,850.85979,524.76137,908.25552,534.19324Z" transform="translate(-237.87568 -5.10261)"/><path class="p" d="M817.17922,514.75973a32.8195,32.8195,0,0,1,8.172-28.51734,52.94509,52.94509,0,0,1,47.60044-.6561,32.8547,32.8547,0,0,1,1.46349,44.37885c-19.80005-1.76474-37.86376-2.23192-51.65386-2.21789A32.73105,32.73105,0,0,1,817.17922,514.75973Z" transform="translate(-237.87568 -5.10261)"/><path class="q" d="M795.97838,528.462s54.88141-3.70059,112.27714,5.73128" transform="translate(-237.87568 -5.10261)"/><circle class="r" cx="594.56644" cy="489.24462" r="5.07729"/></g></svg>